<!--?xml version="1.0" encoding="utf-8"?-->
<!-- Generator: Adobe Illustrator 18.1.1, SVG Export Plug-In . SVG Version: 6.00 Build 0)  -->

<svg version="1.1" id="_x32_" xmlns="http://www.w3.org/2000/svg" xmlns:xlink="http://www.w3.org/1999/xlink" x="0px" y="0px" viewBox="0 0 512 512" style="width: 256px; height: 256px; opacity: 1;" xml:space="preserve">
<style type="text/css">
	.st0{fill:#4B4B4B;}
</style>
<g>
	<path class="st0" d="M403.925,108.102c-27.595-27.595-62.899-47.558-102.459-56.29L304.182,0L201.946,53.867l-27.306,14.454
		l-5.066,2.654l8.076,4.331l38.16,20.542l81.029,43.602l2.277-42.859c28.265,7.546,53.438,22.53,73.623,42.638
		c29.94,29.939,48.358,71.119,48.358,116.776c0,23.407-4.843,45.58-13.575,65.687l40.37,17.532
		c11.076-25.463,17.242-53.637,17.242-83.219C465.212,198.306,441.727,145.904,403.925,108.102z" style="fill: rgb(255, 255, 255);"></path>
	<path class="st0" d="M296.256,416.151l-81.101-43.612l-2.272,42.869c-28.26-7.555-53.51-22.53-73.618-42.636
		c-29.945-29.95-48.364-71.12-48.364-116.767c0-23.427,4.844-45.522,13.576-65.697l-40.37-17.531
		c-11.076,25.53-17.242,53.723-17.242,83.228c0,57.679,23.407,110.157,61.21,147.893c27.595,27.594,62.899,47.548,102.453,56.202
		l-2.716,51.9l102.169-53.878l27.455-14.454l4.988-2.643l-7.999-4.332L296.256,416.151z" style="fill: rgb(255, 255, 255);"></path>
</g>
</svg>
